<svg width="1670" height="503" viewBox="0 0 1670 503" fill="none" xmlns="http://www.w3.org/2000/svg">
<path d="M195.118 0.76694C182.36 0.76694 172.028 11.1181 172.028 23.8929C172.028 23.9006 172.028 25.4274 172.028 28.1492C172.028 41.513 172.028 96.0189 172.028 124.88C172.028 135.884 163.113 144.813 152.116 144.813C141.119 144.813 132.209 135.884 132.209 124.88C132.209 90.1315 132.209 25.4895 132.209 25.4895C132.209 12.7214 121.865 2.36259 109.107 2.36259C96.3491 2.36259 86.0089 12.7205 86.0089 25.4895C86.0089 25.4962 86.0089 27.0307 86.0089 29.7382C86.0089 42.8677 86.0089 96.0877 86.0089 124.88C86.0089 135.884 77.0989 144.813 66.098 144.813C55.1048 144.813 46.191 135.884 46.191 124.88C46.191 90.1592 46.191 23.8929 46.191 23.8929C46.1919 11.1181 35.8517 0.76694 23.0988 0.76694C10.344 0.76694 0 11.1181 0 23.8929C0 23.9006 0 25.4274 0 28.1492C0 47.1518 0 136.537 0 151.195C0.00763819 153.617 0.203367 155.867 0.5299 158.089C1.15432 162.241 2.21221 166.33 3.67779 170.579C6.24899 177.958 10.0834 185.77 15.4406 193.657C19.4592 199.557 24.3353 205.466 30.1871 211.063C38.9538 219.436 49.9595 227.079 63.2222 232.564C67.6285 234.39 72.2983 235.938 77.1763 237.236V489.793C77.1763 496.93 82.9517 502.707 90.0791 502.707H128.139C135.269 502.707 141.044 496.93 141.044 489.793V237.257C147.145 235.632 152.908 233.578 158.273 231.14C168.744 226.398 177.728 220.31 185.224 213.637C196.484 203.604 204.423 192.385 209.754 181.819C212.417 176.515 214.434 171.363 215.863 166.371C216.585 163.88 217.154 161.415 217.554 158.921C217.957 156.428 218.213 153.916 218.213 151.195C218.213 134.448 218.213 23.8929 218.213 23.8929C218.212 11.1181 207.868 0.76694 195.118 0.76694Z" fill="black"/>
<path d="M347.704 3.85064C341.815 -0.0796883 334.501 -1.03096 327.84 1.13354C327.225 1.32475 326.613 1.51596 326.012 1.76549L264.825 27.4183C257.46 30.4978 252.217 37.1681 250.941 45.0517L235.144 230.643C234.082 237.257 235.931 244.02 240.226 249.15C244.52 254.295 292.711 296.524 292.711 296.524V489.793C292.711 497.088 298.622 503 305.898 503H344.805C352.091 503 358 497.089 358 489.793V23.0826C358.001 15.3472 354.134 8.12994 347.704 3.85064Z" fill="black"/>
<path d="M747.5 188.625C695.553 188.625 653.45 230.864 653.45 282.938C653.45 335.029 695.553 377.25 747.5 377.25C799.434 377.25 841.55 335.029 841.55 282.938C841.55 230.864 799.434 188.625 747.5 188.625ZM998.3 94.3125H923.06C912.715 94.3125 901.566 86.2645 898.3 76.4183L878.85 17.8879C875.571 8.048 864.436 2.567e-08 854.09 2.567e-08H640.91C630.565 2.567e-08 619.416 8.048 616.15 17.8942L596.7 76.4246C593.421 86.2645 582.286 94.3125 571.94 94.3125H496.7C462.215 94.3125 434 122.606 434 157.188V440.125C434 474.706 462.215 503 496.7 503H998.3C1032.79 503 1061 474.706 1061 440.125V157.188C1061 122.606 1032.79 94.3125 998.3 94.3125ZM747.5 440.125C660.93 440.125 590.75 369.749 590.75 282.938C590.75 196.132 660.93 125.75 747.5 125.75C834.057 125.75 904.25 196.132 904.25 282.938C904.25 369.749 834.057 440.125 747.5 440.125ZM976.355 201.156C964.241 201.156 954.41 191.31 954.41 179.15C954.41 167.002 964.241 157.143 976.355 157.143C988.481 157.143 998.3 167.002 998.3 179.15C998.3 191.31 988.475 201.156 976.355 201.156Z" fill="#030104"/>
<path d="M1403.5 115.484C1513.38 -168.028 1943.88 115.484 1403.5 480C863.123 115.484 1293.62 -168.028 1403.5 115.484Z" fill="black"/>
<path d="M1196 503C1228.58 503 1255 475.018 1255 440.5C1255 405.982 1228.58 378 1196 378C1163.42 378 1137 405.982 1137 440.5C1137 475.018 1163.42 503 1196 503Z" fill="black"/>
</svg>
